<?xml version="1.0" encoding="iso-8859-1"?>
<!-- Generator: Adobe Illustrator 19.0.0, SVG Export Plug-In . SVG Version: 6.00 Build 0)  -->
<svg version="1.1" id="Layer_1" xmlns="http://www.w3.org/2000/svg" xmlns:xlink="http://www.w3.org/1999/xlink" x="0px" y="0px"
	 viewBox="0 0 512 512" style="enable-background:new 0 0 512 512;" xml:space="preserve">
<g>
	<g>
		<g>
			<path d="M92.575,221.396h254.753c4.483,0,8.117-3.633,8.117-8.117s-3.634-8.117-8.117-8.117H92.575
				c-4.483,0-8.117,3.633-8.117,8.117S88.093,221.396,92.575,221.396z"/>
			<path d="M355.446,270.124c0-4.484-3.634-8.117-8.117-8.117H92.575c-4.483,0-8.117,3.633-8.117,8.117s3.634,8.117,8.117,8.117
				h254.753C351.812,278.241,355.446,274.607,355.446,270.124z"/>
			<path d="M456.108,0H55.892c-19.982,0-36.24,16.256-36.24,36.239v383.179c0,2.153,0.855,4.217,2.378,5.74l84.465,84.466
				c1.522,1.522,3.587,2.377,5.739,2.377h343.874c19.982,0,36.24-16.256,36.24-36.239V36.239C492.348,16.256,476.09,0,456.108,0z
				 M104.117,484.287l-56.752-56.752h43.224c7.46,0,13.528,6.068,13.528,13.528V484.287z M456.108,495.765H120.351v-54.704
				c0-16.41-13.35-29.761-29.761-29.761H35.886V36.239c0-11.03,8.975-20.005,20.006-20.005h400.216
				c11.031,0,20.006,8.975,20.006,20.005V475.76h0C476.114,486.792,467.14,495.765,456.108,495.765z"/>
			<path d="M92.575,164.551h254.753c4.483,0,8.117-3.633,8.117-8.117c0-4.484-3.634-8.117-8.117-8.117H92.575
				c-4.483,0-8.117,3.633-8.117,8.117C84.459,160.918,88.093,164.551,92.575,164.551z"/>
			<path d="M419.417,262.007h-30.31c-4.483,0-8.117,3.633-8.117,8.117s3.634,8.117,8.117,8.117h30.31
				c4.483,0,8.117-3.633,8.117-8.117S423.9,262.007,419.417,262.007z"/>
			<path d="M419.417,205.162h-30.31c-4.483,0-8.117,3.633-8.117,8.117s3.634,8.117,8.117,8.117h30.31
				c4.483,0,8.117-3.633,8.117-8.117C427.534,208.796,423.9,205.162,419.417,205.162z"/>
			<path d="M419.417,148.318h-30.31c-4.483,0-8.117,3.633-8.117,8.117c0,4.484,3.634,8.117,8.117,8.117h30.31
				c4.483,0,8.117-3.633,8.117-8.117C427.534,151.951,423.9,148.318,419.417,148.318z"/>
			<path d="M419.417,50.193H92.575c-4.483,0-8.117,3.633-8.117,8.117v45.354c0,4.484,3.634,8.117,8.117,8.117h326.842
				c4.483,0,8.117-3.633,8.117-8.117V58.31C427.534,53.826,423.9,50.193,419.417,50.193z M100.692,95.547V66.426H411.3v29.121
				H100.692z"/>
			<path d="M390.768,386.545v-20.99c3.729,0.965,7.595,2.623,11.462,4.693c1.521,0.831,3.174,1.243,4.832,1.243
				c5.249,0,9.393-4.004,9.393-9.253c0-4.145-2.347-6.766-4.97-8.286c-5.939-3.316-12.571-5.525-20.027-6.631v-1.932
				c0-4.008-3.18-7.181-7.184-7.181c-4.006,0-7.181,3.173-7.181,7.181v1.654c-17.403,1.798-29.004,12.018-29.004,27.211
				c0,16.435,9.806,24.031,29.695,29.418v21.96c-6.352-1.382-11.878-4.006-17.678-7.735c-1.657-1.105-3.591-1.798-5.387-1.798
				c-5.387,0-9.531,4.006-9.531,9.394c0,3.727,1.798,6.489,4.699,8.287c8.146,4.972,17.401,8.423,27.207,9.668v7.457
				c0,4.006,3.175,7.183,7.181,7.183c4.004,0,7.184-3.176,7.184-7.183v-7.318c17.4-1.935,29.279-11.882,29.279-27.348
				C420.739,400.772,411.759,392.207,390.768,386.545z M377.787,382.953c-7.597-2.762-9.53-5.663-9.53-9.945
				c0-4.419,2.9-7.733,9.53-8.7V382.953z M390.768,426.321v-19.196c7.457,2.623,9.806,5.66,9.806,10.217
				C400.574,422.314,397.256,425.355,390.768,426.321z"/>
			<path d="M297.694,341.39H170.318c-4.483,0-8.117,3.634-8.117,8.117v45.354c0,4.484,3.634,8.117,8.117,8.117h127.377
				c4.483,0,8.117-3.633,8.117-8.117v-45.354C305.811,345.024,302.177,341.39,297.694,341.39z M289.577,386.745H178.434v-29.121
				h111.143V386.745z"/>
		</g>
	</g>
</g>
<g>
</g>
<g>
</g>
<g>
</g>
<g>
</g>
<g>
</g>
<g>
</g>
<g>
</g>
<g>
</g>
<g>
</g>
<g>
</g>
<g>
</g>
<g>
</g>
<g>
</g>
<g>
</g>
<g>
</g>
</svg>
