<svg height="511pt" viewBox="1 -62 511.99899 511" width="511pt" xmlns="http://www.w3.org/2000/svg"><path d="m118.71875 372.585938h-88.707031c-8.164063 0-14.804688-6.640626-14.804688-14.800782v-282.574218c0-4.199219-3.402343-7.605469-7.601562-7.605469s-7.605469 3.40625-7.605469 7.605469v282.574218c0 16.546875 13.464844 30.007813 30.011719 30.007813h88.707031c4.199219 0 7.605469-3.402344 7.605469-7.601563 0-4.199218-3.40625-7.605468-7.605469-7.605468zm0 0"/><path d="m504.394531 67.605469c-4.199219 0-7.601562 3.40625-7.601562 7.605469v282.574218c0 8.160156-6.644531 14.800782-14.8125 14.800782h-337.914063c-4.199218 0-7.601562 3.40625-7.601562 7.605468 0 4.199219 3.402344 7.601563 7.601562 7.601563h337.914063c16.550781 0 30.019531-13.460938 30.019531-30.007813v-282.574218c0-4.199219-3.40625-7.605469-7.605469-7.605469zm0 0"/><path d="m56.980469 360.421875h398.03125c16.671875 0 30.234375-13.5625 30.234375-30.234375v-299.453125c0-16.671875-13.5625-30.234375-30.234375-30.234375h-151.023438c-20.441406 0-38.328125 11.097656-47.984375 27.578125-9.660156-16.480469-27.546875-27.578125-47.988281-27.578125h-151.035156c-16.671875 0-30.234375 13.5625-30.234375 30.234375v299.453125c0 16.667969 13.5625 30.234375 30.234375 30.234375zm-15.027344-30.234375v-4.097656c4.429687 2.550781 9.558594 4.015625 15.027344 4.015625h151.035156c12.550781 0 24.011719 5.679687 31.53125 15.105469h-182.566406c-8.285157 0-15.027344-6.738282-15.027344-15.023438zm413.058594 15.023438h-182.558594c7.523437-9.421876 18.980469-15.105469 31.535156-15.105469h151.023438c5.46875 0 10.59375-1.464844 15.023437-4.011719v4.09375c0 8.285156-6.738281 15.023438-15.023437 15.023438zm-151.023438-329.503907h151.023438c8.285156 0 15.027343 6.742188 15.027343 15.027344v30.304687h-.003906v238.882813c-.019531 8.261719-6.75 14.976563-15.023437 14.976563h-151.023438c-15.671875 0-30.109375 6.433593-40.382812 17.308593v-276.117187c0-22.265625 18.117187-40.382813 40.382812-40.382813zm-262.035156 15.027344c0-8.285156 6.742187-15.027344 15.027344-15.027344h151.035156c22.265625 0 40.378906 18.117188 40.378906 40.382813v276.117187c-10.269531-10.875-24.707031-17.308593-40.378906-17.308593h-151.035156c-8.285157 0-15.027344-6.738282-15.027344-15.015626zm0 0"/><path d="m81.222656 74.292969h123.023438c4.199218 0 7.605468-3.40625 7.605468-7.605469s-3.40625-7.605469-7.605468-7.605469h-123.023438c-4.199218 0-7.605468 3.40625-7.605468 7.605469s3.40625 7.605469 7.605468 7.605469zm0 0"/><path d="m204.25 96.300781h-16.585938c-4.199218 0-7.601562 3.402344-7.601562 7.601563 0 4.203125 3.402344 7.605468 7.601562 7.605468h16.585938c4.199219 0 7.601562-3.402343 7.601562-7.605468 0-4.199219-3.402343-7.601563-7.601562-7.601563zm0 0"/><path d="m81.222656 111.507812h81.09375c4.199219 0 7.601563-3.402343 7.601563-7.605468 0-4.199219-3.402344-7.601563-7.601563-7.601563h-81.09375c-4.199218 0-7.605468 3.402344-7.605468 7.601563 0 4.203125 3.40625 7.605468 7.605468 7.605468zm0 0"/><path d="m81.222656 185.941406h123.023438c4.199218 0 7.605468-3.402344 7.605468-7.605468 0-4.199219-3.40625-7.601563-7.605468-7.601563h-123.023438c-4.199218 0-7.605468 3.402344-7.605468 7.601563 0 4.203124 3.40625 7.605468 7.605468 7.605468zm0 0"/><path d="m81.222656 260.375h123.023438c4.199218 0 7.605468-3.402344 7.605468-7.601562 0-4.203126-3.40625-7.605469-7.605468-7.605469h-123.023438c-4.199218 0-7.605468 3.402343-7.605468 7.605469 0 4.199218 3.40625 7.601562 7.605468 7.601562zm0 0"/><path d="m81.222656 148.726562h123.023438c4.199218 0 7.605468-3.40625 7.605468-7.605468 0-4.199219-3.40625-7.605469-7.605468-7.605469h-123.023438c-4.199218 0-7.605468 3.40625-7.605468 7.605469 0 4.199218 3.40625 7.605468 7.605468 7.605468zm0 0"/><path d="m81.222656 223.160156h123.023438c4.199218 0 7.605468-3.40625 7.605468-7.605468 0-4.199219-3.40625-7.605469-7.605468-7.605469h-123.023438c-4.199218 0-7.605468 3.40625-7.605468 7.605469 0 4.199218 3.40625 7.605468 7.605468 7.605468zm0 0"/><path d="m317.277344 193.21875.007812 100.304688c0 4.199218 3.40625 7.601562 7.605469 7.601562s7.601563-3.402344 7.601563-7.601562l-.007813-100.300782c.007813-16.351562-4.039063-32.898437-11.707031-47.847656-4.273438-8.320312-6.4375-17.3125-6.4375-26.714844.003906-11.449218 3.296875-22.523437 9.519531-32.039062 8.921875-13.664063 22.6875-22.746094 38.253906-25.65625l-13.167969 25.113281c-9.449218 18.027344-2.476562 40.386719 15.554688 49.851563 14.394531 7.535156 31.777344 4.894531 43.25-6.582032 2.617188-2.617187 4.835938-5.628906 6.597656-8.96875l12.820313-24.460937c2.53125 5.976562 4.054687 12.335937 4.476562 18.839843.082031 1.308594.121094 2.496094.113281 3.707032.066407 18.019531-7.976562 34.8125-22.074218 46.074218-7.882813 6.292969-14.753906 13.761719-20.421875 22.1875-2.347657 3.484376-1.421875 8.210938 2.0625 10.554688s8.210937 1.421875 10.554687-2.066406c4.804688-7.140625 10.625-13.464844 17.296875-18.792969 17.746094-14.179687 27.875-35.324219 27.789063-57.941406.007812-1.496094-.039063-3.03125-.144532-4.699219-.890624-13.726562-5.644531-26.925781-13.746093-38.179688-1.542969-2.140624-4.0625-3.320312-6.710938-3.140624-2.628906.183593-4.972656 1.71875-6.195312 4.054687l-19.285157 36.785156c-1.039062 1.976563-2.347656 3.757813-3.886718 5.292969-6.746094 6.746094-16.96875 8.296875-25.4375 3.867188-10.601563-5.5625-14.703125-18.71875-9.148438-29.320313l19.523438-37.222656c1.214844-2.320313 1.152344-5.101563-.167969-7.363281-1.320313-2.261719-3.710937-3.6875-6.328125-3.769532-26.035156-.824218-50.078125 11.714844-64.3125 33.519532-7.839844 11.988281-11.984375 25.9375-11.996094 40.351562 0 11.679688 2.808594 23.320312 8.117188 33.664062 6.570312 12.804688 10.039062 26.945313 10.03125 40.898438zm0 0"/><path d="m385.707031 209.183594c-4.023437-1.21875-8.265625 1.054687-9.484375 5.074218-2.976562 9.84375-4.488281 20.078126-4.488281 30.414063v48.851563c0 4.199218 3.402344 7.601562 7.601563 7.601562 4.203124 0 7.605468-3.402344 7.605468-7.601562v-48.851563c0-8.84375 1.289063-17.59375 3.839844-26.007813 1.214844-4.019531-1.058594-8.265624-5.074219-9.480468zm0 0"/></svg>