<?xml version="1.0" encoding="iso-8859-1"?>
<!-- Generator: Adobe Illustrator 18.0.0, SVG Export Plug-In . SVG Version: 6.00 Build 0)  -->
<!DOCTYPE svg PUBLIC "-//W3C//DTD SVG 1.1//EN" "http://www.w3.org/Graphics/SVG/1.1/DTD/svg11.dtd">
<svg xmlns="http://www.w3.org/2000/svg" xmlns:xlink="http://www.w3.org/1999/xlink" version="1.1" id="Capa_1" x="0px" y="0px" viewBox="0 0 221.154 221.154" style="enable-background:new 0 0 221.154 221.154;" xml:space="preserve" width="512px" height="512px">
<g>
	<path d="M160.021,205.842c-3.384-67.894-1.35-135.435-1.364-203.338c0.517-0.667,0.002-1.949-0.996-2.051   c-12.707-1.3-26.636,0.434-39.242,2.248c-0.502,0.072-0.638,0.53-0.535,0.942c-2.547,1.45-4.823,3.426-7.23,5.088   c-2.649,1.829-5.459,3.432-8.045,5.348c-0.031,0.023-0.033,0.065-0.059,0.092c-0.139,0.009-0.28,0.023-0.418,0.031   c-0.684,0.044-1.016,0.562-1.006,1.075c-0.209,0.151-0.395,0.347-0.501,0.644c-1.013,2.846-2.092,5.637-3.183,8.42   c-0.543,0.071-0.686,0.699-0.392,1.035c-9.519,24.001-21.833,45.819-35.282,67.963c-0.207,0.018-0.418,0.024-0.625,0.043   c-0.477,0.045-0.48,0.702,0,0.744c0.047,0.004,0.096,0.005,0.144,0.009c-0.404,0.664-0.798,1.327-1.204,1.992   c-0.184,0.301-0.05,0.636,0.186,0.832c-0.078,0.2-0.112,0.422-0.019,0.639c2.199,5.189,7.257,9.596,10.929,13.819   c3.712,4.27,7.269,9.686,12.031,12.797c0.507,0.331,0.967,0.087,1.217-0.317c0.27,0.213,0.653,0.282,0.968,0.21   c1.973-0.451,3.881-1.132,5.805-1.755c2.847-0.922,6.687-1.542,9.058-3.427c0.26-0.206,0.321-0.461,0.309-0.718   c1.793-1.151,2.948-3.439,4.09-5.157c0.527-0.792,1.028-1.601,1.556-2.394c-1.151,32.67-2.204,65.408-2.04,98.054   c-0.013-0.001-0.026-0.003-0.039-0.004c-0.599-0.061-0.746,0.974-0.143,1.059c0.062,0.009,0.123,0.017,0.185,0.026   c0.016,2.724-0.018,5.451,0.016,8.173c0.007,0.519,0.289,0.801,0.633,0.976c-0.144,0.778,0.335,1.745,1.275,1.683   c12.776-0.834,24.965-0.344,37.703,0.529c0.274,0.019,0.493-0.067,0.685-0.19c0.333-0.003,0.648-0.115,0.915-0.295   c0.266,0.037,0.554-0.011,0.837-0.231c4.833-3.768,9.39-7.866,14.256-11.603C161.695,207.91,161.099,206.118,160.021,205.842z    M102.431,111.749c-1.03,1.663-2.398,3.421-2.835,5.362c-0.038-0.007-0.07-0.039-0.108-0.042c-2.062-0.172-4.232,1-6.146,1.666   c-1.32,0.459-2.639,0.918-3.948,1.409c-1.143,0.429-2.287,0.853-3.426,1.292c-0.2,0.077-0.491,0.155-0.773,0.249   c7.352-11.546,15.499-23.345,21.867-35.512c-0.215,6.436-0.441,12.879-0.668,19.323   C105.037,107.557,103.729,109.652,102.431,111.749z M106.63,217.893c0.156-2.566,0.275-5.136,0.414-7.703   c4.749,0.668,9.5,1.33,14.265,1.874c0.954,0.109,0.934-1.368,0-1.487c-4.724-0.603-9.463-1.088-14.202-1.567   c0.156-2.926,0.233-5.86,0.37-8.788c0.048,0.287,0.23,0.558,0.605,0.578c5.726,0.308,11.453,0.706,17.188,0.763   c1.002,0.01,0.982-1.477,0-1.543c-5.72-0.383-11.458-0.426-17.188-0.559c-0.363-0.008-0.536,0.23-0.594,0.499   c0.192-4.131,0.304-8.27,0.463-12.404c3.331,0.284,6.717,0.693,10.042,0.624c0.58-0.012,0.767-0.965,0.144-1.059   c-3.327-0.5-6.766-0.542-10.143-0.693c0.144-3.803,0.236-7.611,0.357-11.415c4.57,0.34,9.342,0.466,13.808-0.571   c0.74-0.172,0.588-1.366-0.18-1.333c-4.563,0.195-9.02,0.684-13.586,0.555c0.192-6.122,0.343-12.248,0.491-18.373   c5.918,1.093,12.017,1.197,17.935,0.118c0.858-0.157,0.671-1.605-0.207-1.534c-5.965,0.483-11.752,0.509-17.689-0.027   c0.069-2.927,0.107-5.854,0.169-8.782c2.957,0.104,5.974,0.322,8.906,0.048c0.657-0.062,0.658-0.961,0-1.023   c-2.926-0.275-5.936-0.058-8.889,0.047c0.131-6.261,0.208-12.508,0.319-18.768c3.742-0.423,7.438-0.365,11.213-0.414   c0.893-0.012,1.174-1.497,0.22-1.625c-3.783-0.509-7.636-0.182-11.405,0.407c0.07-4.002,0.134-7.997,0.204-12   c3.667-0.097,7.365-0.14,10.988-0.589c1.005-0.125,1.071-1.593,0-1.618c-3.637-0.082-7.313,0.252-10.959,0.527   c0.172-9.866,0.347-19.736,0.503-29.58c0.03-1.894-2.877-1.887-2.938,0c-0.001,0.027-0.002,0.054-0.003,0.081   c-0.087,0.064-0.177,0.118-0.257,0.218c-9.465,11.761-16.948,26.207-23.836,39.704c-1.728-2.685-4.019-5.143-6.275-7.53   c3.122-0.828,6.111-0.856,9.38-0.785c0.647,0.014,0.814-1.021,0.156-1.15c-3.371-0.664-7.018,0.037-10.239,1.187   c-0.956-1.011-1.895-2.014-2.768-3.013c-1.246-1.425-2.496-3.009-3.788-4.591c4.832,0.82,9.782,1.399,14.66,1.057   c0.916-0.064,0.926-1.381,0-1.432c-5.365-0.291-10.646-0.405-15.971-1.195c-2.115-2.49-4.38-4.845-6.987-6.404   c0.609-0.774,1.164-1.589,1.761-2.372c8.965,0.657,18.211,0.555,27.146,0.049c0.823-0.046,0.827-1.242,0-1.283   c-8.677-0.432-17.647-0.473-26.364,0.18c3.525-4.684,6.801-9.553,9.941-14.514c7.96-0.217,15.744,0.493,23.684,1.14   c0.679,0.055,0.821-1.038,0.161-1.187c-7.55-1.707-15.416-1.73-23.118-1.085c2.592-4.147,5.037-8.39,7.389-12.687   c4.091-0.251,8.162-0.256,12.269-0.176c0.879,0.017,0.837-1.248,0-1.339c-3.819-0.414-7.664-0.297-11.481,0.101   c1.67-3.096,3.245-6.245,4.801-9.402c2.97-0.284,5.936-0.638,8.857-1.22c0.681-0.136,0.537-1.28-0.165-1.223   c-2.684,0.217-5.349,0.627-8.004,1.096c2.006-4.123,3.888-8.303,5.716-12.504c4.943-0.015,9.919,0.048,14.832-0.447   c0.934-0.094,0.977-1.476,0-1.487c-4.785-0.054-9.585,0.421-14.359,0.839c1.917-4.448,3.719-8.934,5.461-13.435   c2.964,0.128,5.975,0.305,8.891,0.026c0.955-0.091,0.957-1.396,0-1.487c-2.737-0.262-5.557-0.119-8.343,0.006   c0.538-1.407,1.057-2.817,1.588-4.225c2.458-0.469,4.755-0.312,7.271,0.229c0.906,0.195,1.208-1.03,0.376-1.363   c-2.261-0.904-4.764-0.907-7.105-0.306c0.235-0.634,0.487-1.264,0.714-1.899c0.036-0.102,0.026-0.187,0.039-0.281   c12.451,0.676,26,0.844,38.18-1.733c0.333-0.07,0.535-0.266,0.697-0.48c-0.016,0.075-0.083,0.105-0.087,0.189   c-2.74,67.811-2.189,136.149,0.671,203.952C131.028,216.077,118.389,216.197,106.63,217.893z M145.97,217.683   c-2.464-67.809-0.504-135.536-1.537-203.345c-0.019-1.277-1.552-1.414-2.107-0.554c0.246-0.804-0.204-1.862-1.232-1.877   c-11.339-0.162-22.977,1.087-34.388,1.95c1.772-0.928,3.51-1.926,5.21-2.969c2.792-1.714,5.821-3.411,8.064-5.828   c0.218-0.235,0.306-0.497,0.316-0.752c12.111-0.016,24.825,0.24,36.8-1.32c-5.611,67.468-3.202,136.197-0.199,203.744   c0.013,0.291,0.101,0.528,0.221,0.735C153.128,210.519,149.245,213.887,145.97,217.683z" fill="#D80027"/>
	<path d="M119.981,135.997c-2.391-0.25-4.872-0.001-7.272,0.065c-0.777,0.021-0.779,1.187,0,1.209   c2.401,0.066,4.881,0.315,7.272,0.065C120.841,137.246,120.843,136.087,119.981,135.997z" fill="#D80027"/>
	<path d="M118.514,101.766c-2.616,0.469-5.118,0.866-7.787,0.709c-0.606-0.036-0.582,0.865,0,0.93   c2.69,0.296,5.488,0.279,8.088-0.545C119.521,102.636,119.226,101.638,118.514,101.766z" fill="#D80027"/>
	<path d="M118.649,90.808c-2.619-0.088-5.331,0.411-7.936,0.671c-0.9,0.09-0.933,1.483,0,1.432c2.688-0.148,5.494-0.083,8.142-0.587   C119.736,92.156,119.488,90.837,118.649,90.808z" fill="#D80027"/>
</g>
<g>
</g>
<g>
</g>
<g>
</g>
<g>
</g>
<g>
</g>
<g>
</g>
<g>
</g>
<g>
</g>
<g>
</g>
<g>
</g>
<g>
</g>
<g>
</g>
<g>
</g>
<g>
</g>
<g>
</g>
</svg>
