<?xml version="1.0" encoding="UTF-8"?>
<!DOCTYPE svg PUBLIC "-//W3C//DTD SVG 1.1//EN" "http://www.w3.org/Graphics/SVG/1.1/DTD/svg11.dtd">
<svg version="1.1" xmlns="http://www.w3.org/2000/svg" xmlns:xlink="http://www.w3.org/1999/xlink" x="0" y="0" width="568" height="568" viewBox="0, 0, 568, 568">
  <defs>
    <clipPath id="Clip_1">
      <path d="M0.06,0.882 L567.118,0.882 L567.118,568 L0.06,568 z"/>
    </clipPath>
  </defs>
  <g id="Layer_1">
    <g clip-path="url(#Clip_1)">
      <path d="M283.559,0.882 C440.166,0.882 567.118,127.834 567.118,284.441 C567.118,441.048 440.166,568 283.559,568 C126.952,568 0,441.048 0,284.441 C0,127.834 126.952,0.882 283.559,0.882" fill="#8B2A2D"/>
    </g>
    <path d="M26.361,284.441 C26.361,142.393 141.511,27.243 283.559,27.243 C425.606,27.243 540.757,142.393 540.757,284.441 C540.757,426.488 425.606,541.639 283.559,541.639 C141.511,541.639 26.361,426.488 26.361,284.441" fill="#FFFFFE"/>
    <path d="M283.559,37.243 C420.084,37.243 530.757,147.916 530.757,284.441 C530.757,420.966 420.084,531.639 283.559,531.639 C147.034,531.639 36.361,420.966 36.361,284.441 C36.361,147.916 147.034,37.243 283.559,37.243" fill="#DC3F30"/>
    <path d="M252.039,212.963 L257.291,192.801 C240.667,184.534 238.321,169.959 246.291,154.012 C247.693,147.378 249.38,140.075 252.167,134.658 C251.886,126.301 253.224,116.48 257.706,109.755 L258.516,101.107 C231.562,84.099 230.38,59.115 247.464,53.544 C259.246,49.701 271.329,48.764 283.633,50.639 C292.582,44.941 302.199,41.072 312.003,38.862 C342.743,42.384 371.768,51.543 398.019,65.281 C417.369,88.504 420.803,124.111 390.015,165.654 C383.126,174.61 371.116,184.758 362.737,187.944 C360.336,195.57 358.849,202.842 357.761,209.377 C356.787,215.228 356.124,220.513 355.445,224.982 C370.776,234.45 384.416,240.691 400.981,247.264 C438.265,265.016 464.236,283.839 471.016,334.768 C476.743,367.855 479.989,400.776 480.757,433.528 C435.624,493.132 364.089,531.639 283.559,531.639 C203.316,531.639 132.004,493.406 86.845,434.165 C92.75,408.675 104.253,381.326 121.167,352.224 C123.427,317.629 131.305,290.978 145.728,273.447 L145.332,273.187 C137.611,268.115 129.539,258.682 125.004,250.348 L122.972,246.615 L123.918,245.567 C110.174,243.194 97.149,232.328 102.347,213.976 L73.205,175.496 C70.543,171.496 69.097,166.904 68.742,162.042 C79.766,142.734 93.318,125.057 108.948,109.46 C128.163,99.978 148.05,96.521 167.893,103.415 L181.76,104.442 L197.24,121.827 L190.375,127.362 C191.619,127.415 193.029,127.737 194.513,128.537 C195.635,129.143 197.08,129.995 198.522,130.851 C199.82,131.62 201.116,132.393 202.121,132.94 C201.896,133.15 200.977,134.395 199.634,134.855 L206.053,135.475 C210.179,141.163 212.521,146.801 218.833,155.94 L219.202,156.474 L219.448,157.073 C219.669,157.612 236.849,199.139 252.039,212.963 z M145.205,158.831 L135.36,159.278 L128.912,156.451 C127.427,156.997 126.506,157.488 125.942,157.871 C125.598,158.104 125.41,158.282 125.312,158.389 C125.248,158.509 124.972,158.998 124.844,159.848 L124.715,160.775 L139.108,179.9 L140.113,169.508 L141.877,167.952 L139.823,159.557 L145.205,158.831" fill="#FFFFFE"/>
    <path d="M180.797,520.289 C179.834,491.454 179.144,450.568 172.58,447.617 L245.616,376.479 L462.37,320.954 C471.249,366.395 475.422,411.521 474.89,456.326 C427.808,508.701 359.53,541.639 283.559,541.639 C247.025,541.639 212.271,534.022 180.797,520.289" fill="#8B2A2D"/>
    <path d="M358.063,182.952 C361.995,183.332 376.438,173.462 385.226,162.039 C449.371,75.487 351.854,11.731 284.961,56.943 C272.775,54.73 260.896,55.474 249.325,59.248 C241.017,61.958 234.566,80.882 264.844,97.894 L263.526,111.953 C259.208,117.299 257.681,127.132 258.242,136.08 C255.398,140.739 253.643,148.196 251.999,156.026 C244.189,171.084 246.894,182.944 264.399,189.318 L257.154,217.125 C245.2,229.885 211.133,236.649 171.685,260.957 C144.986,272.612 130.113,303.634 127.066,354.019 C78.737,436.57 75.487,502.576 117.315,552.032 C172.998,567.188 233.078,515.376 259.571,413.019 L409.045,399.827 L465.798,361.21 L465.084,335.674 C458.707,287.513 434.992,270.095 398.585,252.761 C380.604,245.627 366.049,238.893 348.874,227.941 C350.775,217.642 351.824,201.106 358.063,182.952" fill="#8B2A2D"/>
    <path d="M253.573,235.928 C219.694,247.609 192.097,256.995 173.086,270.006 C149.67,287.933 139.269,316.303 136.241,354.769 L117.899,396.772 C146.709,389.546 173.491,389.546 198.242,396.772 C205.433,389.289 208.655,371.677 207.906,343.937 L213.906,382.435 L221.659,377.602 L239.076,295.933 C240.773,288.253 259.214,282.449 294.395,278.523 C309.166,282.631 316.486,287.751 316.356,293.885 C324.654,297.621 328.501,302.289 327.893,307.89 C334.081,307.702 344.366,317.001 340.644,324.767 C346.796,330.075 349.108,335.889 347.582,342.205 L349.579,361.353 L390.998,409.357 C400.619,397.593 408.425,379.007 414.416,353.601 C414.56,380.193 422.813,417.003 422.813,417.003 C440.532,413.822 456.897,412.931 459.161,403.372 L456.419,348.768 C452.8,320.498 445.428,285.373 406.166,265.632 L352.815,239.039 C341.983,286.458 280.067,285.043 253.573,235.928" fill="#FFFFFE"/>
    <path d="M253.573,235.928 C255.258,239.053 257.085,242 259.033,244.769 C201.15,261.454 166.211,300.873 154.22,363.023 L147.167,391.86 C137.655,392.626 127.9,394.264 117.899,396.772 L136.241,354.769 C139.269,316.303 149.67,287.933 173.086,270.006 C192.097,256.995 219.694,247.609 253.573,235.928" fill="#DC8C76"/>
    <path d="M278.563,88.969 L271.037,101.734 L269.106,114.497 C264.616,120.051 262.276,128.052 262.089,138.499 C259.21,144.357 257.38,150.103 256.597,155.737 C242.949,180.757 269.576,173.256 287.362,184.976 C308.395,192.807 325.633,190.891 339.077,179.23 C332.431,200.73 310.598,209.07 273.581,204.249 L265.8,236.796 C271.77,263.196 307.145,275.945 334.969,257.124 L349.832,179.257 L341.581,175.881 C377.552,173.903 379.457,127.947 351.707,148.129 L341.206,144.754 C343.01,137.61 343.385,131.359 342.331,126.003 L350.957,113.627 C291.645,105.362 297.356,83.395 278.563,88.969" fill="#FFFFFE"/>
    <path d="M252.25,62.002 C283.202,66.733 295.11,106.964 347.003,101.848 C380.232,120.728 385.226,135.238 383.029,152.373 C442.781,60.549 333.293,28.581 298.674,58.352 C323.504,69.528 337.271,78.315 339.974,84.713 C301.857,59.8 261.013,58.347 252.25,62.002" fill="#FFFFFE"/>
    <path d="M297.514,106.524 C299.784,105.431 303.971,105.617 310.071,107.081 C316.291,110.375 321.825,114.818 323.358,119.4 C316.399,122.086 310.403,122.412 305.37,120.381 L301.286,113.824 C297.943,116.915 295.181,118.359 292.998,118.153 L297.514,106.524" fill="#8B2A2D"/>
    <path d="M310.01,199.666 C314.452,208.518 315.394,222.216 312.832,240.761 C320.1,225.197 324.024,210.287 324.606,196.034 L310.01,199.666" fill="#8B2A2D"/>
    <path d="M317.581,264.791 C294.115,270.27 270.57,257.891 265.8,236.796 L273.581,204.249 C275.996,204.564 278.346,204.822 280.631,205.025 C289.599,235.049 301.915,254.971 317.581,264.791" fill="#DC8C76"/>
    <path d="M277.353,180.27 C261.408,174.893 245.366,176.325 256.597,155.737 C257.38,150.103 259.21,144.357 262.089,138.499 C262.276,128.052 264.616,120.051 269.106,114.497 L270.911,102.569 C278.303,103.858 282.917,105.744 284.754,108.228 L278.996,119.925 C275.3,123.199 274.402,126.412 276.304,129.565 L275.642,137.926 L271.399,147.289 L265.528,150.385 C263.485,152.929 266.688,158.22 271.313,159.72 C268.267,167.722 270.28,174.573 277.353,180.27" fill="#DC8C76"/>
    <path d="M282.111,113.081 L285.884,106.153 L282.296,103.308 L271.445,102.664 L271.285,107.638 L275.183,112.339 L282.111,113.081" fill="#8B2A2D"/>
    <path d="M284.214,127.31 C280.646,127.957 277.697,127.524 275.368,126.01 C274.304,131.708 274.056,135.708 274.625,138.011 C278.131,140.366 283.513,141.748 290.771,142.155 C291.674,138.661 289.488,133.713 284.214,127.31" fill="#8B2A2D"/>
    <path d="M264.9,148.935 L271.204,147.028 C273.011,149.556 276.022,150.596 280.236,150.148 L289.806,157.601 C291.149,161.174 289.095,160.963 286.681,159.207 L280.388,154.178 C274.189,153.325 269.844,152.403 269.355,150.67 C265.493,150.783 264.007,150.205 264.9,148.935" fill="#8B2A2D"/>
    <path d="M283.964,161.76 C277.391,161.847 271.794,160.2 267.175,156.821 L269.7,163.545 C272.452,163.339 276.029,164.128 280.433,165.912 L283.964,161.76" fill="#8B2A2D"/>
    <path d="M118.975,214.202 C114.088,228.575 119.029,233.861 133.799,230.057 C124.323,229.307 119.382,224.022 118.975,214.202" fill="#EC998C"/>
    <path d="M118.405,162.369 C119.396,157.645 117.908,153.611 128.451,150.27 L129.21,150.03 L136.487,153.22 L149.476,152.632 L188.569,121.111 L178.895,110.246 L166.647,109.34 C143.531,100.984 119.808,108.057 96.222,123.799 C76.458,136.988 69.853,159.642 78.094,172.023 L109.036,212.869 C101.82,231.706 118.368,242.033 133.365,239.607 L135.528,241.659 L130.274,247.481 C134.429,255.115 141.877,263.739 148.626,268.172 L156.646,270.517 L180.138,292.687 C194.05,298.9 203.866,294.115 209.084,277.697 L210.189,274.222 L395.248,478.064 C413.699,496.329 445.065,473.272 429.113,451.843 L255.012,247.109 L248.025,217.423 C231.591,202.493 213.897,159.35 213.897,159.35 C207.62,150.264 205.299,144.653 201.196,138.998 C200.645,139.512 190.288,132.505 189.694,133.042 L183.039,134.12 L179.785,140.751 L175.603,140.605 L172.758,145.506 L168.073,146.506 L165.691,151.423 L159.691,153.423 L158.367,158.028 L152.16,159.323 L151.998,163.969 L147.208,164.615 L149.001,169.703 C147.933,170.624 146.879,171.542 145.845,172.453 L145.48,182.727 L137.829,188.177 L118.405,162.369" fill="#8B2A2D"/>
    <path d="M136.246,147.467 L169.658,120.396 L162.953,113.206 L134.716,135.029 L156.301,111.293 C114.311,104.909 72.138,142.219 80.085,166.424 L112.843,207.965 L126.499,195.229 L106.643,167.049 C109.114,151.32 117.023,143.945 130.37,144.923 L136.246,147.467" fill="#DC8C76"/>
    <path d="M162.292,223.023 C149.688,229.631 141.91,237.749 135.763,249.861 C138.192,254.958 142.589,258.911 149.268,263.528 C156.606,252.242 164.646,245.605 176.271,239.324 L162.292,223.023" fill="#DC8C76"/>
    <path d="M398.278,473.335 L306.548,373.396 C308.565,368.186 317.196,362.525 332.44,356.41 L418.09,456.316 C431.929,476.24 411.298,486.405 398.278,473.335" fill="#DC8C76"/>
    <path d="M240.259,248.886 L269.919,283.484 C255.909,287.01 245.366,292.001 238.292,298.456 L164.019,214.444 L133.815,235.357 C119.454,240.25 110.37,228.608 113.877,213.702 L150.653,183.597 L149.955,178.428 C164.297,166.136 176.002,154.248 187.648,145.286 L199.37,161.221 C202.879,173.571 209.937,196.312 233.439,223.971 L240.259,248.886" fill="#DC8C76"/>
    <path d="M158.129,263.43 L182.862,289.173 C192.63,295.547 206.002,284.631 199.626,272.401 L177.361,245.446 C170.291,249.809 163.879,255.803 158.129,263.43" fill="#DC8C76"/>
    <path d="M171.969,247.484 L192.339,272.56 C194.408,277.625 193.216,281.257 188.764,283.454 C189.759,280.056 189.391,276.726 187.658,273.462 L167.622,251.052 L171.969,247.484" fill="#8B2A2D"/>
    <path d="M400.803,467.117 L176.781,212.35 C176.314,207.526 179.391,194.249 187.265,191.992 L184.922,211.33 C201.446,234.519 382.114,438.318 402.614,463.163 C407.133,468.206 411.569,463.099 413.348,461.226 C414.895,463.819 406.577,472.278 400.803,467.117" fill="#8B2A2D"/>
    <path d="M136.342,248.176 L151.297,265.014 L154.261,262.381 L138.232,244.3 L136.342,248.176" fill="#8B2A2D"/>
    <path d="M154.629,226.928 L169.308,246.177 L172.271,243.544 L156.243,225.464 L154.629,226.928" fill="#8B2A2D"/>
    <path d="M146.074,233.218 L162.149,251.51 L165.112,248.877 L149.084,230.797 L146.074,233.218" fill="#8B2A2D"/>
    <path d="M140.612,237.879 L156.461,257.269 L159.425,254.635 L143.397,236.555 L140.612,237.879" fill="#8B2A2D"/>
    <path d="M295.681,283.093 C265.766,286.169 251.811,292.527 246.41,300.079 C240.806,310.325 234.977,337.986 228.923,383.056 L152.632,444.433 L129.316,480.092 C135.891,459.66 138.806,443.952 147.317,436.611 L178.618,416.071 L178.691,404.486 C157.635,399.776 134.375,402.404 108.915,412.372 C84.285,478.181 102.074,516.502 124.066,542.281 C185.682,548.37 208.023,515.728 258.325,407.273 C281.302,399.418 296.699,382.323 303.724,360.176 L330.486,349.357 L335.956,354.956 L335.019,341.268 C334.295,338.165 332.344,335.179 327.444,331.488 L296.011,342.11 C293.423,341.492 292.873,340.37 294.364,338.743 L329.356,326.336 C328.017,321.041 323.983,315.417 319.519,313.26 L286.974,323.613 C284.927,323.059 283.663,321.286 284.833,319.755 L317.47,309.966 C316.194,302.876 312.657,298.876 306.858,297.965 L272.832,307.095 C268.81,306.246 267.987,304.904 270.362,303.07 L304.811,294.435 C304.468,288.808 301.425,285.027 295.681,283.093" fill="#FFFFFE"/>
    <path d="M335.194,343.834 L335.956,354.956 L330.486,349.357 L303.724,360.176 C296.699,382.323 281.302,399.418 258.325,407.273 C208.023,515.728 185.682,548.37 124.066,542.281 C119.47,536.895 115.058,530.959 111.178,524.341 C149.962,529.084 171.701,502.097 171.701,502.097 C206.831,469.459 234.104,427.794 247.253,404.43 C263.501,395.958 279.021,379.956 293.813,356.426 L329.815,341.526 L335.194,343.834" fill="#DC8C76"/>
  </g>
</svg>
